#tb 0: 1/30
#media_type 0: video
#codec_id 0: rawvideo
#dimensions 0: 320x180
#sar 0: 1/1
0,          0,          0,        1,   115200, 0xa6eb8147
0,          1,          1,        1,   115200, 0x1097b61b
0,          2,          2,        1,   115200, 0x909f9c4b
